<svg xmlns="http://www.w3.org/2000/svg" width="23" height="21"><path fill="#fff" d="M23.01 1.425v14.75c0 .78-.63 1.42-1.4 1.42H1.394a1.416 1.416 0 01-1.402-1.42V1.425c0-.78.63-1.422 1.402-1.422H21.61c.77 0 1.4.642 1.4 1.422zm-1.753.572H1.745V15.13h19.512zM16.779 21H6.262l2.645-2.727h5.226zm-6.36-14.9c.518 0 .938.426.938.951a.94.94 0 01-.059.332l2.316 1.997a.927.927 0 011.097-.056l2.359-2.161a.962.962 0 01-.068-.356c0-.526.42-.952.937-.952.518 0 .938.426.938.952 0 .525-.42.951-.938.951a.923.923 0 01-.437-.11l-2.403 2.2c.026.088.04.18.04.275 0 .527-.42.953-.939.953a.945.945 0 01-.922-1.128L10.88 7.879a.923.923 0 01-1.006-.054 333.9 333.9 0 00-4.253 3.442c.026.088.04.181.04.278 0 .525-.42.95-.937.95a.944.944 0 01-.938-.95c0-.525.42-.951.938-.951a.92.92 0 01.533.169l4.282-3.38a.963.963 0 01-.058-.333c0-.525.42-.951.937-.951z"/></svg>