<svg xmlns="http://www.w3.org/2000/svg" width="37" height="37"><path fill="#fff" d="M37 3.894v29.211A3.906 3.906 0 0133.11 37H3.895A3.908 3.908 0 010 33.105V3.894A3.905 3.905 0 013.895-.001H33.11A3.904 3.904 0 0137 3.894zM4.225 24.745h28.55V5.27H4.224zm30.101 5.475H14.395a3.331 3.331 0 00-3.239-2.567 3.332 3.332 0 00-3.238 2.567H2.676v1.542h5.246a3.326 3.326 0 003.234 2.56 3.327 3.327 0 003.235-2.56h19.935zM21.906 8.093h3.982v13.361h-3.981zM10.922 13.23h3.983v8.223H10.92zm5.493-2.183h3.984v10.406h-3.984z"/></svg>